<svg xmlns="http://www.w3.org/2000/svg" viewBox="0 0 720 252" width="720" height="252" role="img" aria-label="Wall-clock speedup at 16 workers, per grammar">
<style>
text{font-family:system-ui,-apple-system,'Segoe UI',sans-serif;fill:#52514e}
.p{fill:#0b0b0b}.m{fill:#898781}.b{font-weight:600}
.gl{stroke:#e1e0d9}.ax{stroke:#c3c2b7}
circle{stroke:#fcfcfb;stroke-width:2}
.c0{fill:#2a78d6}.c1{fill:#eb6834}.c2{fill:#1baf7a}.c3{fill:#eda100}
.c4{fill:#e87ba4}.c5{fill:#008300}.c6{fill:#4a3aa7}.c7{fill:#e34948}
@media(prefers-color-scheme:dark){
text{fill:#c3c2b7}
.p{fill:#ffffff}
.gl{stroke:#2c2c2a}.ax{stroke:#383835}
circle{stroke:#1a1a19}
.c0{fill:#3987e5}.c1{fill:#d95926}.c2{fill:#199e70}.c3{fill:#c98500}
.c4{fill:#d55181}.c6{fill:#9085e9}.c7{fill:#e66767}
}
</style>
<line x1="201.5" y1="24.0" x2="201.5" y2="218.0" class="ax" stroke-width="1"/>
<text x="193.5" y="234.0" font-size="12" class="m">1×</text>
<line x1="283.1" y1="24.0" x2="283.1" y2="218.0" class="gl" stroke-width="1"/>
<text x="275.1" y="234.0" font-size="12" class="m">2×</text>
<line x1="364.6" y1="24.0" x2="364.6" y2="218.0" class="gl" stroke-width="1"/>
<text x="356.6" y="234.0" font-size="12" class="m">3×</text>
<line x1="446.2" y1="24.0" x2="446.2" y2="218.0" class="gl" stroke-width="1"/>
<text x="438.2" y="234.0" font-size="12" class="m">4×</text>
<line x1="527.7" y1="24.0" x2="527.7" y2="218.0" class="gl" stroke-width="1"/>
<text x="519.7" y="234.0" font-size="12" class="m">5×</text>
<line x1="609.2" y1="24.0" x2="609.2" y2="218.0" class="gl" stroke-width="1"/>
<text x="601.2" y="234.0" font-size="12" class="m">6×</text>
<text x="193.5" y="18.0" font-size="11" class="m">sequential</text>
<text x="8.0" y="43.0" font-size="13">vyx</text>
<path d="M 120.0 30.0 H 536.5 Q 540.5 30.0 540.5 34.0 V 42.0 Q 540.5 46.0 536.5 46.0 H 120.0 Z" class="c0"/>
<text x="547.5" y="43.0" font-size="12" class="p b">5.2×</text>
<text x="8.0" y="69.0" font-size="13">gbnf-meta</text>
<path d="M 120.0 56.0 H 507.7 Q 511.7 56.0 511.7 60.0 V 68.0 Q 511.7 72.0 507.7 72.0 H 120.0 Z" class="c0"/>
<text x="518.7" y="69.0" font-size="12" class="p b">4.8×</text>
<text x="8.0" y="95.0" font-size="13">abnf-meta</text>
<path d="M 120.0 82.0 H 503.2 Q 507.2 82.0 507.2 86.0 V 94.0 Q 507.2 98.0 503.2 98.0 H 120.0 Z" class="c0"/>
<text x="514.2" y="95.0" font-size="12" class="p b">4.7×</text>
<text x="8.0" y="121.0" font-size="13">json</text>
<path d="M 120.0 108.0 H 464.5 Q 468.5 108.0 468.5 112.0 V 120.0 Q 468.5 124.0 464.5 124.0 H 120.0 Z" class="c0"/>
<text x="475.5" y="121.0" font-size="12" class="p b">4.3×</text>
<text x="8.0" y="147.0" font-size="13">markdown</text>
<path d="M 120.0 134.0 H 438.3 Q 442.3 134.0 442.3 138.0 V 146.0 Q 442.3 150.0 438.3 150.0 H 120.0 Z" class="c0"/>
<text x="449.3" y="147.0" font-size="12" class="p b">4.0×</text>
<text x="8.0" y="173.0" font-size="13">arithmetic</text>
<path d="M 120.0 160.0 H 425.0 Q 429.0 160.0 429.0 164.0 V 172.0 Q 429.0 176.0 425.0 176.0 H 120.0 Z" class="c0"/>
<text x="436.0" y="173.0" font-size="12" class="p b">3.8×</text>
<text x="8.0" y="199.0" font-size="13">csv</text>
<path d="M 120.0 186.0 H 335.9 Q 339.9 186.0 339.9 190.0 V 198.0 Q 339.9 202.0 335.9 202.0 H 120.0 Z" class="c0"/>
<text x="346.9" y="199.0" font-size="12" class="p b">2.7×</text>
<text x="120.0" y="248.0" font-size="11" class="m">one document, 16 workers vs the same engine sequential — from the committed ratchet baseline</text>
</svg>
